<?xml version="1.0" encoding="utf-8"?>
<!-- Generator: Adobe Illustrator 23.1.0, SVG Export Plug-In . SVG Version: 6.00 Build 0)  -->
<svg version="1.1" id="Layer_1" xmlns="http://www.w3.org/2000/svg" xmlns:xlink="http://www.w3.org/1999/xlink" x="0px" y="0px"
	 viewBox="0 0 32 32" style="enable-background:new 0 0 32 32;" xml:space="preserve">
<style type="text/css">
	.st0{fill:#FFFFFF;}
</style>
<title></title>
<path class="st0" d="M24,3H8C5.2,3,3,5.2,3,8v16c0,2.8,2.2,5,5,5h16c2.8,0,5-2.2,5-5V8C29,5.2,26.8,3,24,3z M27,24c0,1.7-1.3,3-3,3
	h-7v-9h4c0.6,0,1-0.4,1-1s-0.4-1-1-1h-4v-2c0-1.1,0.9-2,2-2h2c0.6,0,1-0.4,1-1s-0.4-1-1-1h-2c-2.2,0-4,1.8-4,4v2h-3
	c-0.6,0-1,0.4-1,1s0.4,1,1,1h3v9H8c-1.7,0-3-1.3-3-3V8c0-1.7,1.3-3,3-3h16c1.7,0,3,1.3,3,3V24z"/>
</svg>
