<?xml version="1.0" encoding="utf-8"?>
<!-- Generator: Adobe Illustrator 23.1.0, SVG Export Plug-In . SVG Version: 6.00 Build 0)  -->
<svg version="1.1" id="Layer_1" xmlns="http://www.w3.org/2000/svg" xmlns:xlink="http://www.w3.org/1999/xlink" x="0px" y="0px"
	 viewBox="0 0 32 32" style="enable-background:new 0 0 32 32;" xml:space="preserve">
<style type="text/css">
	.st0{fill:#FFFEFD;stroke:#000000;stroke-miterlimit:10;}
</style>
<title></title>
<g id="Layer_11">
	<path class="st0" d="M29.7,9.9c-0.2-2.4-2.2-4.4-4.6-4.5C19,4.9,13,4.9,6.9,5.4C4.5,5.5,2.5,7.5,2.3,9.9C1.9,14,1.9,18,2.3,22.1
		c0.2,2.4,2.2,4.4,4.6,4.5C9.9,26.9,13,27,16,27s6.1-0.1,9.1-0.4c2.4-0.2,4.4-2.1,4.6-4.5C30.1,18,30.1,14,29.7,9.9z M27.7,21.9
		c-0.1,1.5-1.3,2.6-2.7,2.8c-6,0.5-11.9,0.5-17.9,0c-1.5-0.1-2.6-1.3-2.8-2.7C4,18,4,14,4.3,10.1c0.1-1.4,1.3-2.6,2.7-2.7
		C10,7.1,13,7,16,7s6,0.1,9,0.3c1.5,0.1,2.6,1.3,2.8,2.7C28.1,14,28.1,18,27.7,21.9L27.7,21.9z"/>
	<path class="st0" d="M21.5,15.1l-8-4c-0.5-0.2-1.1-0.1-1.3,0.4C12,11.7,12,11.8,12,12v8c0,0.3,0.2,0.7,0.5,0.9
		c0.2,0.1,0.3,0.2,0.5,0.1c0.2,0,0.3,0,0.4-0.1l8-4c0.5-0.3,0.7-0.9,0.4-1.3C21.8,15.4,21.6,15.2,21.5,15.1z M14,18.4v-4.8l4.8,2.4
		L14,18.4z"/>
</g>
</svg>
